<?xml version="1.0" encoding="UTF-8" standalone="no"?>
<svg width="41px" height="34px" viewBox="0 0 41 34" version="1.1" xmlns="http://www.w3.org/2000/svg" xmlns:xlink="http://www.w3.org/1999/xlink" xmlns:sketch="http://www.bohemiancoding.com/sketch/ns">
    <!-- Generator: Sketch 3.3.3 (12072) - http://www.bohemiancoding.com/sketch -->
    <title>ic-svg-briefcase</title>
    <desc>Created with Sketch.</desc>
    <defs></defs>
    <g id="Page-1" stroke="none" stroke-width="1" fill="none" fill-rule="evenodd" sketch:type="MSPage">
        <g id="dcamp-about-2015" sketch:type="MSArtboardGroup" transform="translate(-612.000000, -1973.000000)">
            <g id="Group" sketch:type="MSLayerGroup" transform="translate(252.000000, 1971.000000)">
                <g id="ic-svg-briefcase" transform="translate(360.000000, 0.000000)" sketch:type="MSShapeGroup">
                    <rect id="Rectangle-path" x="0" y="0" width="40" height="40"></rect>
                    <path d="M18.64,20.024 L22.204,20.024 L22.204,23.984 L40.224,23.984 C40.224,23.984 39.932,15.156 39.828,12.394 C39.73,9.768 38.79,8.144 35.868,8.144 L29.516,8.144 C28.532,6.288 27.472,4.292 27.146,3.68 C26.49,2.444 26.268,2.204 24.81,2.204 L16.034,2.204 C14.576,2.204 14.352,2.444 13.698,3.68 C13.372,4.292 12.314,6.29 11.328,8.144 L4.974,8.144 C2.052,8.144 1.122,9.768 1.014,12.394 C0.906,15.018 0.62,23.984 0.62,23.984 L18.64,23.984 L18.64,20.024 L18.64,20.024 Z M15.77,5.994 C16.224,5.14 16.378,4.972 17.388,4.972 L23.46,4.972 C24.468,4.972 24.624,5.138 25.078,5.994 C25.248,6.314 25.708,7.182 26.216,8.142 L14.63,8.142 C15.138,7.182 15.598,6.314 15.77,5.994 L15.77,5.994 Z M22.206,29.924 L18.642,29.924 L18.642,25.964 L1.612,25.964 C1.612,25.964 1.858,29.524 2.006,32.544 C2.068,33.796 2.438,35.866 5.57,35.866 L35.276,35.866 C38.408,35.866 38.77,33.796 38.838,32.544 C39.012,29.438 39.234,25.964 39.234,25.964 L22.204,25.964 L22.204,29.924 L22.206,29.924 Z" id="Shape" fill="#FFCC00"></path>
                </g>
            </g>
        </g>
    </g>
</svg>