<?xml version="1.0" encoding="UTF-8" standalone="no"?>
<svg width="40px" height="36px" viewBox="0 0 40 36" version="1.1" xmlns="http://www.w3.org/2000/svg" xmlns:xlink="http://www.w3.org/1999/xlink" xmlns:sketch="http://www.bohemiancoding.com/sketch/ns">
    <!-- Generator: Sketch 3.3.3 (12072) - http://www.bohemiancoding.com/sketch -->
    <title>ic-svg-members</title>
    <desc>Created with Sketch.</desc>
    <defs></defs>
    <g id="Page-1" stroke="none" stroke-width="1" fill="none" fill-rule="evenodd" sketch:type="MSPage">
        <g id="dcamp-about-2015" sketch:type="MSArtboardGroup" transform="translate(-273.000000, -1973.000000)">
            <g id="Group" sketch:type="MSLayerGroup" transform="translate(252.000000, 1971.000000)">
                <g id="ic-svg-members" transform="translate(20.000000, 0.000000)" sketch:type="MSShapeGroup">
                    <rect id="Rectangle-path" x="0" y="0" width="40" height="40"></rect>
                    <path d="M40.64,37.626 C40.64,37.626 40.562,30.126 40.102,29.35 C39.42,28.192 37.834,27.396 34.888,26.164 C31.95,24.936 31.012,23.9 31.012,21.682 C31.012,20.35 31.908,20.786 32.304,18.348 C32.468,17.336 33.26,18.332 33.412,16.022 C33.412,15.102 32.98,14.872 32.98,14.872 C32.98,14.872 33.198,13.51 33.284,12.462 C33.392,11.156 32.626,7.784 28.55,7.784 C24.472,7.784 23.708,11.158 23.816,12.462 C23.902,13.51 24.12,14.872 24.12,14.872 C24.12,14.872 23.688,15.102 23.688,16.022 C23.84,18.33 24.63,17.334 24.794,18.348 C25.188,20.786 26.086,20.35 26.086,21.682 C26.086,23.19 25.648,24.152 24.448,25 C30.864,28.212 31.726,28.866 31.726,31.738 L31.726,37.624 L40.64,37.624 L40.64,37.626 Z M21.282,27.282 C17.364,25.646 16.112,24.264 16.112,21.308 C16.112,19.532 17.31,20.112 17.832,16.86 C18.05,15.512 19.108,16.838 19.308,13.76 C19.308,12.532 18.732,12.226 18.732,12.226 C18.732,12.226 19.024,10.412 19.14,9.014 C19.282,7.272 18.264,2.774 12.828,2.774 C7.39,2.774 6.37,7.272 6.514,9.014 C6.63,10.412 6.922,12.226 6.922,12.226 C6.922,12.226 6.346,12.532 6.346,13.76 C6.548,16.838 7.604,15.512 7.822,16.86 C8.348,20.112 9.542,19.532 9.542,21.308 C9.542,24.264 8.29,25.646 4.374,27.282 C3.178,27.78 1.034,28.554 1.034,30.412 L1.034,37.626 L28.548,37.626 L28.548,32.216 C28.548,30.522 25.208,28.924 21.282,27.282 L21.282,27.282 Z" id="Shape" fill="#FFCC00"></path>
                </g>
            </g>
        </g>
    </g>
</svg>